HIERARCHY
ROOT hip
{
	OFFSET 0.000000 0.000000 0.000000 
	CHANNELS 6 Xposition Yposition Zposition Xrotation Zrotation Yrotation
	JOINT abdomen
	{
		OFFSET 0.000000 3.402643 0.000000 
		CHANNELS 3 Xrotation Zrotation Yrotation
		JOINT chest
		{
			OFFSET 0.000000 8.438565 -0.680529 
			CHANNELS 3 Xrotation Zrotation Yrotation
			JOINT neck
			{
				OFFSET 0.000000 10.207942 -0.272212 
				CHANNELS 3 Xrotation Zrotation Yrotation
				JOINT head
				{
					OFFSET 0.000000 3.130431 0.000000 
					CHANNELS 3 Xrotation Zrotation Yrotation
					End Site
					{
						OFFSET 0.000000 3.130435 0.000000 
					}
				}
			}
			JOINT lCollar
			{
				OFFSET 3.470700 6.669187 -0.816635 
				CHANNELS 3 Yrotation Zrotation Xrotation
				JOINT lShldr
				{
					OFFSET 3.198488 0.000000 0.000000 
					CHANNELS 3 Zrotation Yrotation Xrotation
					JOINT lForeArm
					{
						OFFSET 10.139888 0.000000 0.000000 
						CHANNELS 3 Yrotation Zrotation Xrotation
						JOINT lHand
						{
							OFFSET 8.370511 0.000000 0.000000 
							CHANNELS 3 Zrotation Yrotation Xrotation
							End Site
							{
								OFFSET 4.083176 0.000000 0.000000 
							}
						}
					}
				}
			}
			JOINT rCollar
			{
				OFFSET -3.470700 6.669187 -0.816635 
				CHANNELS 3 Yrotation Zrotation Xrotation
				JOINT rShldr
				{
					OFFSET -3.198488 0.000000 0.000000 
					CHANNELS 3 Zrotation Yrotation Xrotation
					JOINT rForeArm
					{
						OFFSET -10.139888 0.000000 0.000000 
						CHANNELS 3 Yrotation Zrotation Xrotation
						JOINT rHand
						{
							OFFSET -8.370511 0.000000 0.000000 
							CHANNELS 3 Zrotation Yrotation Xrotation
							End Site
							{
								OFFSET -4.083176 0.000000 0.000000 
							}
						}
					}
				}
			}
		}
	}
	JOINT lThigh
	{
		OFFSET 5.308129 -1.633274 1.361059 
		CHANNELS 3 Xrotation Zrotation Yrotation
		JOINT lShin
		{
			OFFSET -2.041588 -20.007561 0.000000 
			CHANNELS 3 Xrotation Zrotation Yrotation
			JOINT lFoot
			{
				OFFSET 0.000000 -19.190928 -1.224953 
				CHANNELS 3 Xrotation Yrotation Zrotation
				End Site
				{
					OFFSET 0.000000 -2.449906 4.627600 
				}
			}
		}
	}
	JOINT rThigh
	{
		OFFSET -5.308129 -1.633274 1.361059 
		CHANNELS 3 Xrotation Zrotation Yrotation
		JOINT rShin
		{
			OFFSET 2.041588 -20.007561 0.000000 
			CHANNELS 3 Xrotation Zrotation Yrotation
			JOINT rFoot
			{
				OFFSET 0.000000 -19.190928 -1.224953 
				CHANNELS 3 Xrotation Yrotation Zrotation
				End Site
				{
					OFFSET 0.000000 -2.449906 4.627600 
				}
			}
		}
	}
}
MOTION
Frames: 10
Frame Time: 0.033333
38.716492 50.343685 36.763054 -3.715093 -4.368676 155.607819 0.000000 0.000000 0.000000 -1.180850 -0.722370 -1.611569 1.109588 0.740814 3.486668 4.131175 -6.174454 6.236482 -9.701478 -2.632335 -0.712951 -62.228344 10.429453 16.392170 -47.066132 -7.961142 -11.296455 13.746148 20.353251 -1.666863 11.711350 17.656631 -2.457315 48.739128 -28.297997 16.832817 61.436642 11.610595 0.392911 -21.401073 -8.786536 -2.558813 -13.231907 5.517315 0.217397 25.065094 3.152738 -3.861461 -17.495756 1.488961 -9.758768 -20.413342 -11.597851 -1.265594 30.990118 1.856493 14.349577 -16.463831 -0.359903 2.563202 
39.398300 50.498722 37.046158 -4.202645 -4.199991 160.913315 0.000000 0.000000 0.000000 -0.875341 -0.439251 -1.738380 1.350249 0.526379 3.467010 4.406573 -5.584915 5.975006 -10.042925 -2.988159 -0.442768 -60.063507 11.533160 16.443708 -45.424713 -8.361238 -10.611583 13.431738 21.057198 -1.642701 11.159208 17.381502 -2.093509 48.640812 -27.942759 16.700186 60.929146 11.285586 2.895729 -20.191872 -8.444237 -2.675569 -14.255374 5.380052 1.304779 24.495031 2.201889 4.560789 -14.396676 1.436139 -11.038156 -19.046761 -11.929590 -3.110933 30.484644 3.174062 10.954289 -16.749142 -0.285886 2.008747 
40.070919 50.680691 37.406284 -5.387774 -4.043419 166.371185 0.000000 0.000000 0.000000 -0.997502 -0.263539 -1.816432 1.157048 0.770242 3.252316 5.336565 -5.964021 5.949748 -9.482100 -2.243860 -0.481636 -58.523914 11.175616 17.382250 -43.398232 -8.762523 -8.937420 12.726542 21.109364 -1.744309 11.034826 17.740582 -2.249457 48.083366 -28.091269 16.030710 61.235630 11.126424 0.956397 -19.611673 -8.744906 -2.660466 -16.069031 5.378907 2.694827 23.747925 0.854877 12.654076 -11.156449 1.121892 -11.057567 -18.348358 -11.825385 -4.466021 29.427750 4.228105 6.953561 -16.723087 -0.274455 1.838055 
40.713551 50.742981 37.636497 -5.694979 -3.766545 171.465698 0.000000 0.000000 0.000000 -0.740699 -0.410002 -1.572365 1.628878 1.189556 3.194089 5.646544 -6.246469 5.883825 -9.069087 -1.683359 -0.221708 -57.736752 11.317032 17.035898 -42.562523 -8.588545 -6.810314 12.746873 21.228088 -1.726155 11.425789 18.312164 -2.094962 47.368591 -29.046314 15.403767 61.178688 10.988584 -0.086932 -19.601814 -8.873779 -2.645473 -17.205700 4.960809 3.644900 23.615061 -0.178150 18.048687 -9.237046 0.868012 -10.273864 -17.376759 -11.528501 -5.473136 29.315125 4.696942 2.669230 -17.286762 -0.319508 2.025478 
41.279701 50.776287 37.786850 174.140472 -176.404739 -3.884621 0.000000 0.000000 0.000000 -0.457069 -0.566286 -1.181776 1.991652 1.276942 3.477439 5.432155 -6.178794 5.853654 -8.632518 -1.749513 0.009949 -56.665760 11.245936 16.213415 -42.510136 -8.263643 -6.103057 12.835058 20.890156 -1.743468 12.050007 18.772884 -1.921159 46.209633 -29.602289 15.245430 60.804180 11.243788 -1.581388 -20.026146 -8.553202 -2.676939 -17.866697 4.500443 4.434735 23.402695 -1.141287 21.833689 -8.082807 0.686519 -9.232182 -16.598948 -11.091678 -5.984248 29.364359 4.667852 -1.394147 -17.844698 -0.455676 2.527720 
41.783264 50.767647 37.872475 173.970703 -176.523605 0.547645 0.000000 0.000000 0.000000 -0.102069 -0.654275 -0.468831 1.686161 1.071609 3.994902 6.233840 -5.929527 5.527052 -7.733139 -2.120843 0.300495 -55.265564 10.312712 15.647249 -42.970997 -8.045833 -7.618514 11.939361 19.772558 -2.001476 12.274671 18.161507 -1.458911 46.683002 -29.525143 14.944780 59.621651 11.422232 -0.208264 -20.540556 -8.225141 -2.693523 -18.340395 4.186281 5.276446 23.406584 -2.158724 24.846384 -7.520182 0.583711 -8.290649 -16.175968 -10.522882 -6.215356 29.684105 4.344755 -5.879517 -18.447971 -0.593898 3.407901 
42.208645 50.770870 37.938896 173.760223 -176.632919 4.802685 0.000000 0.000000 0.000000 -0.065671 -0.830074 -0.185669 1.983974 0.885918 4.512386 6.150973 -5.946770 5.743762 -7.603868 -2.482794 0.310303 -54.974701 10.568859 14.049200 -43.045963 -7.676907 -8.056910 11.501620 18.560633 -2.176028 12.821841 17.941742 -1.413805 45.749054 -29.515821 15.773751 58.663185 11.935018 -0.006989 -20.484051 -8.726205 -2.622861 -18.553377 3.886379 5.750714 23.067999 -2.763955 26.994469 -6.925822 0.507483 -7.638127 -15.766033 -10.054445 -6.454775 29.813520 4.067358 -10.345922 -18.765995 -0.776739 4.451520 
42.581627 50.764587 38.000416 -6.665075 -3.102489 -170.611374 0.000000 0.000000 0.000000 -0.192143 -1.093745 -0.166172 2.011755 0.603494 4.629266 6.193542 -5.218819 5.647796 -7.335426 -2.601829 0.184280 -55.039509 10.764207 13.007826 -43.715935 -7.332094 -9.289832 11.499269 19.099073 -2.120199 13.040868 18.035938 -1.545652 44.863449 -29.394760 16.581615 57.845036 12.247090 1.799660 -20.376852 -9.405419 -2.512291 -18.912643 3.690338 5.928569 22.739588 -3.045203 28.515642 -6.359828 0.434382 -7.317192 -15.592642 -9.441069 -6.609665 29.904177 3.609831 -15.195778 -18.927971 -0.985881 5.713255 
42.859043 50.759724 37.938053 -6.723258 -2.739597 -166.087509 0.000000 0.000000 0.000000 -0.213121 -1.123046 -0.088065 2.053913 0.282295 4.589931 6.477925 -4.861556 5.360594 -7.209534 -3.073807 0.135965 -55.168896 10.797256 12.147872 -44.199123 -6.987260 -9.959886 12.581519 17.866962 -2.096594 12.895386 17.438940 -1.470824 45.119839 -29.324734 17.137812 57.310375 12.169446 3.713267 -20.372618 -10.408748 -2.344591 -18.663237 3.561645 6.018979 22.687464 -2.983974 29.868776 -6.151382 0.446934 -7.477890 -14.939924 -8.661240 -6.650621 29.802828 3.094869 -20.297205 -18.889423 -1.216340 7.161222 
43.092690 50.732010 37.948204 -7.371061 -1.712997 -161.466263 0.000000 0.000000 0.000000 -0.801151 -1.083984 0.019528 1.812288 0.740186 4.209389 6.577288 -5.329762 5.188068 -7.173592 -2.435395 -0.358597 -56.723709 11.076596 11.325603 -44.591988 -6.631426 -10.388283 12.975243 16.481436 -2.184356 13.098356 17.857897 -2.055946 44.416187 -30.127626 17.553261 58.346691 11.914842 2.040600 -20.373951 -11.341022 -2.181775 -19.620754 3.679270 5.965230 23.176727 -2.793555 31.954504 -5.996132 0.437087 -7.755733 -15.170978 -7.506767 -6.559463 29.618269 2.733849 -25.662876 -18.547966 -1.433409 8.611361 
